<svg xmlns="http://www.w3.org/2000/svg" width="61.995" height="41.072" viewBox="0 0 61.995 41.072">
  <g id="lop-multimedia-logo-lop" transform="translate(0 -5)">
    <path id="Trazado_4822" data-name="Trazado 4822" d="M14.342,7.4a3.642,3.642,0,1,0,3.642,3.642A3.688,3.688,0,0,0,14.342,7.4Z" transform="translate(-2.408 -0.54)" fill="#fff"/>
    <path id="Trazado_4823" data-name="Trazado 4823" d="M6.819,30.341A3.306,3.306,0,0,1,5.5,27.628V15.074h0V5L.465,7.092A.91.91,0,0,0,0,7.867V26.931a10.021,10.021,0,0,0,10,10,3.773,3.773,0,0,0,.93-.077v-5.5A5,5,0,0,1,6.819,30.341Z" fill="#fff"/>
    <path id="Trazado_4824" data-name="Trazado 4824" d="M51.8,35.9" transform="translate(-11.658 -6.954)" fill="#fff"/>
    <g id="Grupo_4108" data-name="Grupo 4108" transform="translate(58.275 33.285)">
      <g id="Grupo_4107" data-name="Grupo 4107">
        <path id="Trazado_4825" data-name="Trazado 4825" d="M77.06,41.965a1.395,1.395,0,1,1-1.395,1.395,1.5,1.5,0,0,1,1.395-1.395m0-.465a1.86,1.86,0,1,0,1.86,1.86,1.886,1.886,0,0,0-1.86-1.86Z" transform="translate(-75.2 -41.5)" fill="#fff"/>
      </g>
      <path id="Trazado_4826" data-name="Trazado 4826" d="M77.475,43.962h-.31v.465a.076.076,0,0,1-.077.077h-.31a.076.076,0,0,1-.077-.077v-1.55a.076.076,0,0,1,.077-.077h.7c.465,0,.62.232.62.542a.67.67,0,0,1-.232.465v.077l.31.465a.076.076,0,0,1-.077.077H77.63Zm.077-.775h-.31a.076.076,0,0,0-.077.077V43.5a.076.076,0,0,0,.077.077h.31c.155,0,.155-.077.155-.155C77.707,43.265,77.63,43.187,77.552,43.187Z" transform="translate(-75.538 -41.793)" fill="#fff"/>
    </g>
    <path id="Trazado_4827" data-name="Trazado 4827" d="M27.892,16.8A11.392,11.392,0,1,0,39.283,28.192,11.41,11.41,0,0,0,27.892,16.8Zm0,17.281a5.89,5.89,0,1,1,5.89-5.89A5.887,5.887,0,0,1,27.892,34.081Z" transform="translate(-3.714 -2.656)" fill="#fff"/>
    <path id="Trazado_4828" data-name="Trazado 4828" d="M60.134,16.8A11.392,11.392,0,0,0,48.2,28.188V48.724l4.882-2.092a.953.953,0,0,0,.542-.852V37.952a10.856,10.856,0,0,0,5.89,1.627,11.4,11.4,0,0,0,.62-22.783Zm-.542,17.281a5.89,5.89,0,1,1,5.89-5.89A5.79,5.79,0,0,1,59.592,34.077Z" transform="translate(-10.848 -2.652)" fill="#fff"/>
  </g>
</svg>
