<svg xmlns="http://www.w3.org/2000/svg" xmlns:xlink="http://www.w3.org/1999/xlink" width="44" height="44.002" viewBox="0 0 44 44.002">
  <defs>
    <clipPath id="clip-path">
      <rect id="Rectángulo_5332" data-name="Rectángulo 5332" width="44" height="44.002" transform="translate(4788 3252.725)" fill="#485a64"/>
    </clipPath>
  </defs>
  <g id="Enmascarar_grupo_2" data-name="Enmascarar grupo 2" transform="translate(-4788 -3252.725)" clip-path="url(#clip-path)">
    <path id="_002-package" data-name="002-package" d="M28.666,7.674c0-.019-.006-.032-.006-.051s-.006-.013-.006-.019-.006-.032-.013-.051-.006-.013-.006-.019-.013-.032-.019-.045,0-.006-.006-.013L25.1.366A.646.646,0,0,0,24.53.008H4.143a.646.646,0,0,0-.574.358L.064,7.476c0,.006,0,.006-.006.013s-.013.032-.019.045-.006.013-.006.019A.122.122,0,0,0,.019,7.6c0,.006-.006.013-.006.019a.136.136,0,0,0-.006.051v.019c0,.026-.006.045-.006.07V26.817a.64.64,0,0,0,.638.638h27.4a.64.64,0,0,0,.638-.638V7.757a.265.265,0,0,0-.006-.07.02.02,0,0,0-.006-.013Zm-1.653-.556H18.7L17.649,1.285h6.485ZM11.145,8.4h6.383v6.543l-.153-.16a.633.633,0,0,0-.46-.2.652.652,0,0,0-.46.191l-.836.855-.823-.849a.647.647,0,0,0-.919,0l-.823.849-.836-.855a.651.651,0,0,0-.46-.191.633.633,0,0,0-.46.2l-.153.16Zm5.208-7.111,1.053,5.834H11.273l1.047-5.834Zm-11.815,0h6.485L9.97,7.119H1.66ZM1.277,26.179V8.4H9.868V16.54a.64.64,0,0,0,1.1.44l.8-.843.83.849a.653.653,0,0,0,.46.191.627.627,0,0,0,.453-.191l.824-.849.823.849a.649.649,0,0,0,.453.191.627.627,0,0,0,.453-.191l.83-.849.8.843a.647.647,0,0,0,.466.2.618.618,0,0,0,.236-.045.638.638,0,0,0,.4-.594V8.4h8.6V26.179Zm0,0" transform="translate(4795.875 3261.187)" fill="#2b2d38" stroke="#2b2d38" stroke-width="0.5"/>
  </g>
</svg>
