<svg xmlns="http://www.w3.org/2000/svg" xmlns:xlink="http://www.w3.org/1999/xlink" width="44" height="44.002" viewBox="0 0 44 44.002">
  <defs>
    <clipPath id="clip-path">
      <rect id="Rectángulo_5333" data-name="Rectángulo 5333" width="44" height="44.002" transform="translate(4834 3252.725)" fill="#485a64"/>
    </clipPath>
  </defs>
  <g id="Enmascarar_grupo_3" data-name="Enmascarar grupo 3" transform="translate(-4834 -3252.725)" clip-path="url(#clip-path)">
    <g id="Grupo_4440" data-name="Grupo 4440" transform="translate(4838.4 3261.928)">
      <path id="Trazado_1852" data-name="Trazado 1852" d="M34.005,14.585l-2.4-1.037L29.573,9.586a3.205,3.205,0,0,0-2.884-1.753H23.184v-.99A3.233,3.233,0,0,0,19.961,3.59H3.207A3.225,3.225,0,0,0,0,6.844V22.011a1.976,1.976,0,0,0,1.949,2h.031l.609-.008c0,.079-.008.11-.008.157a3.919,3.919,0,0,0,3.863,4.094A4.072,4.072,0,0,0,10.531,24.2v-.039a1.222,1.222,0,0,0-.008-.157L24.412,24v.157a3.8,3.8,0,0,0,3.707,4.094A4.072,4.072,0,0,0,32.205,24.2V24h1.014a1.982,1.982,0,0,0,1.98-1.98V16.408A1.971,1.971,0,0,0,34.005,14.585ZM6.468,27.152c-2.172,0-2.758-1.628-2.758-2.979a2.753,2.753,0,0,1,2.735-2.839A2.9,2.9,0,0,1,9.4,24.007,2.971,2.971,0,0,1,6.468,27.152Zm15.464-4.333H10.109a4.337,4.337,0,0,0-3.641-2.71,4.017,4.017,0,0,0-3.686,2.35H1.421a.407.407,0,0,1-.409-.432v-4.5H21.977Zm.045-15.975v9.564H1.012V6.852A2.647,2.647,0,0,1,3.207,4.716H19.961a2.454,2.454,0,0,1,2.016,2.128Zm1.207,2.181h3.505A2.934,2.934,0,0,1,28.661,10.3l1.572,3.246H23.184Zm4.959,18.058a2.735,2.735,0,0,1-2.7-2.927,2.589,2.589,0,0,1,2.7-2.759,2.7,2.7,0,0,1,2.892,2.8A2.77,2.77,0,0,1,28.142,27.084Zm5.888-5.057c0,.244-.139.792-.383.792H31.854c-.292-2.106-3.4-3.275-5.433-2.324a3.474,3.474,0,0,0-2.009,2.324H23.139l.011-8.234h7.7l2.61,1.109a1.591,1.591,0,0,1,.569.745Z" transform="translate(0 -3.59)" fill="#2b2d38" stroke="#2b2d38" stroke-width="0.5"/>
    </g>
  </g>
</svg>
