<?xml version="1.0" encoding="utf-8"?>
<!-- Generator: Adobe Illustrator 23.0.3, SVG Export Plug-In . SVG Version: 6.00 Build 0)  -->
<svg version="1.1" id="Capa_1" xmlns="http://www.w3.org/2000/svg" xmlns:xlink="http://www.w3.org/1999/xlink" x="0px" y="0px"
	 viewBox="0 0 80 63" style="enable-background:new 0 0 80 63;" xml:space="preserve">
<style type="text/css">
	.st0{fill:#FFFFFF;}
</style>
<g>
	<path class="st0" d="M15.4,7.4c-2.6,0-4.7,2.1-4.7,4.7s2.1,4.7,4.7,4.7s4.7-2.1,4.7-4.7S17.9,7.4,15.4,7.4z"/>
	<path class="st0" d="M8.8,37.7c-1.1-0.8-1.7-2.1-1.7-3.5v-1.1V19.4V18c0,0,0,0,0,0V5L0.6,7.7C0.3,7.9,0,8.2,0,8.7l0,24.6
		c0,7.1,5.8,12.9,12.9,12.9c0.4,0,0.8,0,1.2-0.1V39C12.5,39.4,10.6,39,8.8,37.7z"/>
	<path class="st0" d="M51.8,35.9"/>
	<g>
		<g>
			<path class="st0" d="M77.6,42.1c1,0,1.8,0.8,1.8,1.8c0,1-0.8,1.8-1.8,1.8s-1.8-0.8-1.8-1.8C75.9,42.9,76.7,42.1,77.6,42.1
				 M77.6,41.5c-1.3,0-2.4,1.1-2.4,2.4c0,1.3,1.1,2.4,2.4,2.4c1.3,0,2.4-1.1,2.4-2.4C80,42.6,78.9,41.5,77.6,41.5L77.6,41.5z"/>
		</g>
		<path class="st0" d="M77.7,44.3C77.7,44.3,77.7,44.2,77.7,44.3l-0.4,0v0.6c0,0,0,0.1-0.1,0.1h-0.4c0,0-0.1,0-0.1-0.1v-2
			c0,0,0-0.1,0.1-0.1h0.9c0.6,0,0.8,0.3,0.8,0.7c0,0.2-0.1,0.4-0.3,0.6c0,0,0,0.1,0,0.1l0.4,0.6c0,0,0,0.1-0.1,0.1h-0.5
			c0,0-0.1,0-0.1,0L77.7,44.3z M77.8,43.3h-0.4c0,0-0.1,0-0.1,0.1v0.3c0,0,0,0.1,0.1,0.1h0.4c0.2,0,0.2-0.1,0.2-0.2
			C78,43.4,77.9,43.3,77.8,43.3z"/>
	</g>
	<path class="st0" d="M31.2,16.8c-8.1,0-14.7,6.6-14.7,14.7s6.6,14.7,14.7,14.7s14.7-6.6,14.7-14.7S39.3,16.8,31.2,16.8z M31.2,39.1
		c-4.2,0-7.6-3.4-7.6-7.6c0-4.2,3.4-7.6,7.6-7.6c4.2,0,7.6,3.4,7.6,7.6C38.8,35.7,35.4,39.1,31.2,39.1z"/>
	<path class="st0" d="M63.6,16.8c-8.4-0.4-15.4,6.3-15.4,14.7l0,26.5l6.3-2.7c0.4-0.2,0.7-0.6,0.7-1.1V44.1c2.2,1.4,4.8,2.1,7.6,2.1
		c8.4,0,15.1-7,14.7-15.4C77.3,23.3,71.2,17.2,63.6,16.8z M62.9,39.1c-4.2,0-7.6-3.4-7.6-7.6c0-4.2,3.4-7.6,7.6-7.6
		c4.2,0,7.6,3.4,7.6,7.6C70.6,35.7,67.2,39.1,62.9,39.1z"/>
</g>
</svg>
