<svg xmlns="http://www.w3.org/2000/svg" xmlns:xlink="http://www.w3.org/1999/xlink" width="44" height="44" viewBox="0 0 44 44">
  <defs>
    <clipPath id="clip-path">
      <rect id="Rectángulo_5331" data-name="Rectángulo 5331" width="44" height="44" transform="translate(4739 3252.958)" fill="#485a64"/>
    </clipPath>
  </defs>
  <g id="Enmascarar_grupo_1" data-name="Enmascarar grupo 1" transform="translate(-4739 -3252.958)" clip-path="url(#clip-path)">
    <g id="shop" transform="translate(4743.425 3260.483)">
      <g id="Grupo_1562" data-name="Grupo 1562">
        <g id="Grupo_1561" data-name="Grupo 1561">
          <path id="Trazado_1994" data-name="Trazado 1994" d="M33.777,29.97h-.59V14.584A4.814,4.814,0,0,0,35.4,10.533a.519.519,0,0,0-.068-.257l-4.115-7.2a1.631,1.631,0,0,0-1.413-.82H5.6a1.631,1.631,0,0,0-1.413.82l-4.115,7.2A.519.519,0,0,0,0,10.533a4.814,4.814,0,0,0,2.217,4.051V29.97h-.59a.519.519,0,0,0,0,1.037h32.15a.519.519,0,1,0,0-1.037ZM1.073,11.052H2.736a.519.519,0,0,0,0-1.037H1.412L5.084,3.589a.591.591,0,0,1,.512-.3H29.808a.591.591,0,0,1,.512.3l3.672,6.426H32.668a.519.519,0,1,0,0,1.037h1.663a3.777,3.777,0,0,1-7.482,0h3.6a.519.519,0,1,0,0-1.037H4.953a.519.519,0,0,0,0,1.037h3.6a3.777,3.777,0,0,1-7.482,0Zm24.666,0a3.776,3.776,0,0,1-7.481,0Zm-8.592,0a3.776,3.776,0,0,1-7.481,0ZM29.378,29.97H23.764V28.236h5.614Zm0-2.772H23.764V17.7h5.614ZM32.15,29.97H30.415V17.185a.519.519,0,0,0-.519-.519H23.245a.519.519,0,0,0-.519.519V29.97H3.254V15.087A4.81,4.81,0,0,0,9.11,12.706a4.814,4.814,0,0,0,8.592,0,4.814,4.814,0,0,0,8.592,0,4.81,4.81,0,0,0,5.856,2.381Z" transform="translate(0 -2.254)" fill="#2b2d38" stroke="#2b2d38" stroke-width="0.5"/>
        </g>
      </g>
      <g id="Grupo_1564" data-name="Grupo 1564" transform="translate(4.989 14.412)">
        <g id="Grupo_1563" data-name="Grupo 1563">
          <path id="Trazado_1995" data-name="Trazado 1995" d="M18.867,12.024H3.9a.519.519,0,0,0-.519.519V23.075a.519.519,0,0,0,.519.519H18.867a.519.519,0,0,0,.519-.519V12.543A.519.519,0,0,0,18.867,12.024Zm-.519,10.532H4.419V13.061H18.348Z" transform="translate(-3.382 -12.024)" fill="#2b2d38" stroke="#2b2d38" stroke-width="0.5"/>
        </g>
      </g>
    </g>
  </g>
</svg>
